<svg xmlns="http://www.w3.org/2000/svg" width="500" height="500" viewBox="0 0 500 500">
  <!-- Fondo del icono adaptado a las nuevas dimensiones de 500x500 -->
  <rect width="500" height="500" rx="80" fill="#008392"/>
  
  <g fill="#ffffff">
    <!-- Primera letra B (Izquierda - Escalada y centrada matemáticamente) -->
    <path d="M 78.1 393.8 L 78.1 106.2 L 178.1 106.2 C 228.1 106.2, 253.1 137.5, 253.1 168.8 C 253.1 193.8, 234.4 218.8, 203.1 225.0 C 240.6 231.2, 265.6 262.5, 265.6 306.2 C 265.6 356.2, 228.1 393.8, 178.1 393.8 Z M 128.1 212.5 L 165.6 212.5 C 190.6 212.5, 203.1 200.0, 203.1 181.2 C 203.1 162.5, 190.6 150.0, 165.6 150.0 L 128.1 150.0 Z M 128.1 350.0 L 171.9 350.0 C 196.9 350.0, 215.6 331.2, 215.6 306.2 C 215.6 281.2, 196.9 262.5, 171.9 262.5 L 128.1 262.5 Z" />
    
    <!-- Segunda letra B (Derecha - Conservando el kerning estrecho original) -->
    <path d="M 234.4 393.8 L 234.4 106.2 L 334.4 106.2 C 384.4 106.2, 409.4 137.5, 409.4 168.8 C 409.4 193.8, 390.6 218.8, 359.4 225.0 C 396.9 231.2, 421.9 262.5, 421.9 306.2 C 421.9 356.2, 384.4 393.8, 334.4 393.8 Z M 284.4 212.5 L 321.9 212.5 C 346.9 212.5, 359.4 200.0, 359.4 181.2 C 359.4 162.5, 346.9 150.0, 321.9 150.0 L 284.4 150.0 Z M 284.4 350.0 L 328.1 350.0 C 353.1 350.0, 371.9 331.2, 371.9 306.2 C 371.9 281.2, 353.1 262.5, 328.1 262.5 L 284.4 262.5 Z" />
  </g>
</svg>
